<svg id="moovd_logo" xmlns="http://www.w3.org/2000/svg" width="226.044" height="58.304" viewBox="0 0 226.044 58.304">
  <path id="Path_204" data-name="Path 204" d="M55.412,37.44,42.986,30.31,21.553,42.769V56.757a1.041,1.041,0,0,0,.842,1.024,30.018,30.018,0,0,0,11.243-.016,1.041,1.041,0,0,0,.842-1.024V40.233L48.924,48.5a1.06,1.06,0,0,0,1.32-.208,29.3,29.3,0,0,0,5.646-9.618A1.053,1.053,0,0,0,55.412,37.44ZM5.8,9.937A29.257,29.257,0,0,0,.111,19.572,1.034,1.034,0,0,0,.589,20.8l14.475,8.282L.532,37.352a1.033,1.033,0,0,0-.478,1.224,29.083,29.083,0,0,0,5.816,9.866,1.057,1.057,0,0,0,1.312.2l12.207-7.1V16.771L7.11,9.729A1.048,1.048,0,0,0,5.8,9.937ZM55.4,20.86a1.021,1.021,0,0,0,.478-1.232A29.315,29.315,0,0,0,50.09,9.833a1.068,1.068,0,0,0-1.32-.2L34.505,17.939,34.53,1.567A1.041,1.041,0,0,0,33.687.543,30.273,30.273,0,0,0,22.4.519a1.041,1.041,0,0,0-.842,1.024v14l21.433,12.3Z" transform="translate(0 0)" fill="#87cccf"/>
  <path id="Path_205" data-name="Path 205" d="M214.932,41.769c0-.28-.219-.416-.5-.416h-.494v1.432h.243v-.6h.122l.4.6h.276l-.421-.608A.4.4,0,0,0,214.932,41.769Zm-.754.216v-.424h.244c.178,0,.259.072.259.208s-.082.208-.252.208h-.251ZM85.432,14.082a31.662,31.662,0,0,0-9.048,1.4c-1.49-.9-5.16-1.4-7.606-1.4a70.816,70.816,0,0,0-12.4,1.3c-.316.056-.535.208-.535.528V42.4a.5.5,0,0,0,.535.528h-.13a18.6,18.6,0,0,0,8.6,0h-.065a.5.5,0,0,0,.535-.528V22.156c0-.264.057-.472.429-.528a17.6,17.6,0,0,1,2.608-.208c2.5,0,3.459.792,3.459,3.257V42.393a.5.5,0,0,0,.535.528h-.1a18.6,18.6,0,0,0,8.6,0h-.049a.5.5,0,0,0,.535-.528V22.156a.482.482,0,0,1,.478-.528,16,16,0,0,1,2.5-.208c2.714,0,3.621,1,3.621,3.625V42.393a.5.5,0,0,0,.535.528h-.105a18.6,18.6,0,0,0,8.6,0h-.089a.5.5,0,0,0,.535-.528v-17.6C97.4,17.427,94.318,14.082,85.432,14.082ZM210.793,4.3V4.28a22.885,22.885,0,0,0-8.521,0V4.3a.491.491,0,0,0-.453.512v9.354c0,.264-.057.472-.373.472-.689,0-2.284-.264-3.937-.264-8.942,0-12.564,4.681-12.564,14.507,0,10.779,2.714,14.563,14.476,14.563,4.309,0,9.315-.424,11.283-1.264.373-.16.535-.368.535-.576V4.808A.485.485,0,0,0,210.793,4.3Zm-8.967,31.952c0,.208-.057.368-.266.424a8.315,8.315,0,0,1-2.075.208c-3.782,0-4.739-1.416-4.739-7.834,0-6.522,1.224-8.1,4.739-8.1a6.419,6.419,0,0,1,2.025.264c.267.1.316.208.316.424ZM114.01,14.274c-4.739,0-7.768.68-9.842,2.737-2.284,2.153-3.783,6.306-3.783,11.619,0,5.257,1.547,9.834,3.783,11.987,2.074,2.048,4.892,2.841,9.736,2.841,4.787,0,7.825-.792,9.9-2.841,2.236-2.153,3.727-6.73,3.727-11.987,0-5.313-1.491-9.466-3.727-11.619C121.73,14.955,118.854,14.274,114.01,14.274Zm2.771,21.181c-.478.68-1.118.944-2.876.944-1.652,0-2.292-.264-2.771-.944-.744-1-1.166-3.785-1.166-6.994,0-3.153.43-5.465,1.166-6.465.478-.68,1.118-.944,2.876-.944,1.652,0,2.284.264,2.771.944.689,1,1.167,3.313,1.167,6.465C117.947,31.67,117.469,34.463,116.781,35.455ZM184.118,14.8a21.861,21.861,0,0,0-8.367-.008v.016a.564.564,0,0,0-.543.456c-.955,6.674-2.236,14.035-3.4,19.613-.057.264-.105.312-.64.312-.478,0-.64-.056-.689-.312-1.012-5.569-2.236-12.987-3.143-19.661-.056-.264-.161-.424-.477-.424h.057a25.921,25.921,0,0,0-9.073,0h.08c-.373,0-.478.16-.478.472.8,4.209,4.416,19.557,6.44,27.23a.662.662,0,0,0,.583.424h-.025a44.665,44.665,0,0,0,6.7.5,44.67,44.67,0,0,0,6.7-.5h-.324c.373,0,.535-.056.64-.472,2.025-7.57,5.638-22.973,6.383-27.126C184.524,15.066,184.419,14.811,184.118,14.8Zm30.288,25.91a1.365,1.365,0,1,0,1.393,1.36A1.371,1.371,0,0,0,214.406,40.713Zm0,2.481a1.1,1.1,0,0,1-1.11-1.112,1.11,1.11,0,1,1,2.22,0A1.1,1.1,0,0,1,214.406,43.193ZM143.438,14.274c-4.739,0-7.768.68-9.842,2.737-2.284,2.153-3.774,6.306-3.774,11.619,0,5.257,1.547,9.834,3.774,11.987,2.073,2.048,4.893,2.841,9.736,2.841,4.787,0,7.825-.792,9.9-2.841,2.236-2.153,3.727-6.73,3.727-11.987,0-5.313-1.491-9.466-3.727-11.619C151.158,14.955,148.282,14.274,143.438,14.274Zm2.771,21.181c-.478.68-1.117.944-2.876.944-1.652,0-2.284-.264-2.771-.944-.744-1-1.174-3.785-1.174-6.994,0-3.153.43-5.465,1.174-6.465.478-.68,1.118-.944,2.876-.944,1.652,0,2.284.264,2.771.944.689,1,1.174,3.313,1.174,6.465C147.376,31.67,146.9,34.463,146.209,35.455Z" transform="translate(10.246 0.712)" fill="#3c5060"/>
</svg>
