<svg id="moovd_logo" xmlns="http://www.w3.org/2000/svg" width="191" height="49.265" viewBox="0 0 191 49.265">
  <path id="Path_204" data-name="Path 204" d="M46.821,31.636l-10.5-6.024L18.211,36.139V47.957a.88.88,0,0,0,.712.865,25.364,25.364,0,0,0,9.5-.014.88.88,0,0,0,.712-.865V34l12.2,6.984a.9.9,0,0,0,1.116-.176,24.758,24.758,0,0,0,4.771-8.127A.89.89,0,0,0,46.821,31.636ZM4.9,8.4a24.721,24.721,0,0,0-4.8,8.141.873.873,0,0,0,.4,1.041l12.231,7L.45,31.561a.873.873,0,0,0-.4,1.035A24.575,24.575,0,0,0,4.96,40.932a.893.893,0,0,0,1.109.169l10.315-6V14.171L6.008,8.221A.886.886,0,0,0,4.9,8.4Zm41.916,9.229a.863.863,0,0,0,.4-1.041,24.77,24.77,0,0,0-4.894-8.276.9.9,0,0,0-1.116-.169L29.156,15.158l.021-13.834a.88.88,0,0,0-.712-.865,25.58,25.58,0,0,0-9.541-.02.88.88,0,0,0-.712.865V13.137L36.322,23.529Z" fill="#87cccf"/>
  <path id="Path_205" data-name="Path 205" d="M190.268,35.895c0-.237-.185-.352-.425-.352h-.417v1.21h.205v-.507h.1l.342.507h.233l-.356-.514A.337.337,0,0,0,190.268,35.895Zm-.637.183v-.358h.206c.15,0,.219.061.219.176s-.069.176-.213.176h-.212ZM80.845,12.5A26.754,26.754,0,0,0,73.2,13.684c-1.259-.757-4.36-1.183-6.427-1.183a59.837,59.837,0,0,0-10.479,1.1c-.267.047-.452.176-.452.446V36.429a.425.425,0,0,0,.452.446h-.11a15.717,15.717,0,0,0,7.269,0H63.4a.425.425,0,0,0,.452-.446V19.323c0-.223.048-.4.363-.446a14.875,14.875,0,0,1,2.2-.176c2.115,0,2.923.669,2.923,2.752v14.97a.425.425,0,0,0,.452.446h-.082a15.72,15.72,0,0,0,7.269,0h-.041a.425.425,0,0,0,.452-.446v-17.1a.407.407,0,0,1,.4-.446,13.516,13.516,0,0,1,2.115-.176c2.293,0,3.06.845,3.06,3.063V36.422a.425.425,0,0,0,.452.446h-.089a15.72,15.72,0,0,0,7.269,0h-.075a.425.425,0,0,0,.452-.446V21.547C90.961,15.327,88.353,12.5,80.845,12.5ZM186.77,4.231V4.218a19.337,19.337,0,0,0-7.2,0v.014a.415.415,0,0,0-.383.433v7.9c0,.223-.048.4-.315.4-.582,0-1.93-.223-3.327-.223-7.556,0-10.616,3.955-10.616,12.258,0,9.107,2.293,12.306,12.232,12.306,3.641,0,7.871-.358,9.534-1.068.315-.135.452-.311.452-.487V4.664A.41.41,0,0,0,186.77,4.231Zm-7.577,27c0,.176-.048.311-.225.358a7.026,7.026,0,0,1-1.753.176c-3.2,0-4-1.2-4-6.619,0-5.51,1.034-6.843,4-6.843a5.424,5.424,0,0,1,1.711.223c.226.088.267.176.267.358Zm-74.2-18.567c-4,0-6.564.575-8.316,2.312-1.93,1.819-3.2,5.328-3.2,9.818,0,4.442,1.307,8.31,3.2,10.128,1.752,1.731,4.134,2.4,8.227,2.4,4.045,0,6.612-.669,8.364-2.4,1.889-1.819,3.149-5.686,3.149-10.128,0-4.49-1.26-8-3.149-9.818C111.515,13.238,109.085,12.663,104.992,12.663Zm2.341,17.9c-.4.575-.945.8-2.43.8-1.4,0-1.937-.223-2.341-.8-.629-.845-.985-3.2-.985-5.909,0-2.664.363-4.618.985-5.463.4-.575.945-.8,2.43-.8,1.4,0,1.93.223,2.341.8.582.845.986,2.8.986,5.463C108.319,27.362,107.915,29.722,107.333,30.56Zm56.9-17.451a18.472,18.472,0,0,0-7.07-.007v.014a.477.477,0,0,0-.459.385c-.807,5.639-1.889,11.859-2.874,16.572-.048.223-.089.264-.541.264-.4,0-.541-.047-.582-.264-.855-4.706-1.889-10.974-2.656-16.613-.047-.223-.136-.358-.4-.358h.048a21.9,21.9,0,0,0-7.666,0h.068c-.315,0-.4.135-.4.4.678,3.556,3.731,16.525,5.442,23.009a.56.56,0,0,0,.493.358h-.021a37.741,37.741,0,0,0,5.66.419,37.745,37.745,0,0,0,5.661-.419h-.274c.315,0,.452-.047.541-.4,1.711-6.4,4.764-19.412,5.393-22.921C164.574,13.332,164.485,13.116,164.231,13.109ZM189.823,35A1.153,1.153,0,1,0,191,36.152,1.158,1.158,0,0,0,189.823,35Zm0,2.1a.932.932,0,0,1-.938-.94.938.938,0,1,1,1.876,0A.928.928,0,0,1,189.823,37.1ZM129.858,12.663c-4,0-6.564.575-8.316,2.312-1.93,1.819-3.189,5.328-3.189,9.818,0,4.442,1.307,8.31,3.189,10.128,1.752,1.731,4.134,2.4,8.227,2.4,4.045,0,6.612-.669,8.364-2.4,1.889-1.819,3.149-5.686,3.149-10.128,0-4.49-1.26-8-3.149-9.818C136.381,13.238,133.951,12.663,129.858,12.663Zm2.341,17.9c-.4.575-.944.8-2.43.8-1.4,0-1.93-.223-2.341-.8-.629-.845-.992-3.2-.992-5.909,0-2.664.363-4.618.992-5.463.4-.575.945-.8,2.43-.8,1.4,0,1.93.223,2.341.8.582.845.992,2.8.992,5.463C133.185,27.362,132.781,29.722,132.2,30.56Z" fill="#fff"/>
</svg>
